# xmcd
#
# Track frame offsets: 
#        150
#        16159
#        28644
#        40896
#        53491
#        63345
#        73061
#        83075
#        93290
#        103405
#        114027
#        125973
#        137575
#        146361
#        157670
#        165829
#
# Disc length: 2368 seconds
#
# Revision: 0
# Processed by: cddbd v1.5.2PL0 Copyright (c) Steve Scherf et al.
# Submitted via: ExactAudioCopy v0.99pb1
#
DISCID=c3093e10
DTITLE=Johnny Cash - Country Sessions
DYEAR=2008
DGENRE=Country
TTITLE0=A Boy named Sue
TTITLE1=Ring of Fire
TTITLE2=I walk the line
TTITLE3=Folsom Prison Blues
TTITLE4=Ballad of a Teenage Queen
TTITLE5=Rock Island Line
TTITLE6=Get Rythm
TTITLE7=There You go
TTITLE8=Straight A's in Love
TTITLE9=Train of love
TTITLE10=You're the nearest thing to Heaven
TTITLE11=So Doggone Lonesome
TTITLE12=Katy too
TTITLE13=Big River
TTITLE14=Guess things happen that way
TTITLE15=Home of the Blues
EXTD=
EXTT0=
EXTT1=
EXTT2=
EXTT3=
EXTT4=
EXTT5=
EXTT6=
EXTT7=
EXTT8=
EXTT9=
EXTT10=
EXTT11=
EXTT12=
EXTT13=
EXTT14=
EXTT15=
PLAYORDER=
